<svg xmlns="http://www.w3.org/2000/svg" version="1.1" xmlns:xlink="http://www.w3.org/1999/xlink" xmlns:svgjs="http://svgjs.dev/svgjs" width="1000" height="540" viewBox="0 0 1000 540"><g transform="matrix(1,0,0,1,-0.6060365499102431,-0.2901718063687895)"><svg viewBox="0 0 396 214" data-background-color="#000000" preserveAspectRatio="xMidYMid meet" height="540" width="1000" xmlns="http://www.w3.org/2000/svg" xmlns:xlink="http://www.w3.org/1999/xlink"><g id="tight-bounds" transform="matrix(1,0,0,1,0.2399904737644647,0.11499401215355931)"><svg viewBox="0 0 395.52 213.77000919963197" height="213.77000919963197" width="395.52"><g><svg viewBox="0 0 395.52 213.77000919963197" height="213.77000919963197" width="395.52"><g><svg viewBox="0 0 395.52 213.77000919963197" height="213.77000919963197" width="395.52"><g id="textblocktransform"><svg viewBox="0 0 395.52 213.77000919963197" height="213.77000919963197" width="395.52" id="textblock"><g><svg viewBox="0 0 395.52 213.77000919963197" height="213.77000919963197" width="395.52"><g transform="matrix(1,0,0,1,0,0)"><svg width="395.52" viewBox="-3.200000047683716 -40.20000076293945 108.68999481201172 58.75" height="213.77000919963197" data-palette-color="#f8f5ff"><path d="M59.45-35.3L59.45-35.3 57.3-34.9Q53.45-28.25 49.9-17L49.9-17Q48.55-12.75 46.1-7.23 43.65-1.7 40.65 3L40.65 3Q36.6 9.3 29.88 13.38 23.15 17.45 17.6 18.2L17.6 18.2Q15.05 18.55 11.8 18.55 8.55 18.55 5.1 17.4L5.1 17.4Q-0.3 15.6-2.3 11.5L-2.3 11.5Q-3.2 9.6-3.2 7.05-3.2 4.5-1.85 1.05L-1.85 1.05Q-0.9-1.25 1.5-3.25 3.9-5.25 5.25-5.3L5.25-5.3Q5.85-5.35 5.85-5.1L5.85-5.1Q5.8-4.9 5.2-4.6L5.2-4.6Q3.6-3.95 1.65-1.75-0.3 0.45-0.93 2.68-1.55 4.9-1.55 6.1L-1.55 6.1Q-1.55 9.75 0.4 12L0.4 12Q1.75 13.5 3.75 14.7 5.75 15.9 8.05 16.35L8.05 16.35Q11.45 17 13.45 17 15.45 17 17 16.6L17 16.6Q20.4 15.85 23.58 14.1 26.75 12.35 29.2 10.28 31.65 8.2 34.08 5.15 36.5 2.1 38.15-0.4 39.8-2.9 41.65-6.4L41.65-6.4Q44.65-12.1 47.8-19.5L47.8-19.5Q51.75-28.3 55.8-34.7L55.8-34.7Q48.85-33.55 41.65-29.7L41.65-29.7Q38-27.75 35.4-24.75L35.4-24.75Q32.05-20.95 32.05-16.6L32.05-16.6Q32.05-14.25 33.18-12.95 34.3-11.65 35.55-11.65 36.8-11.65 38.3-12.2 39.8-12.75 41-14.1L41-14.1Q42.9-16.3 42.9-19.15L42.9-19.15Q42.9-20.35 42.55-20.75L42.55-20.75Q41.95-21.15 42.45-21.5L42.45-21.5Q43-21.8 43.6-21.15L43.6-21.15Q44.1-20.05 44.1-18.57 44.1-17.1 43-15.2L43-15.2Q41.15-12.05 37.9-10.9L37.9-10.9Q36.4-10.4 35.05-10.4L35.05-10.4Q32.8-10.4 31-11.85L31-11.85Q28.7-13.75 28.7-16.95L28.7-16.95Q28.7-21 31.6-24.7L31.6-24.7Q33.8-27.55 36.77-29.4 39.75-31.25 43.5-32.7L43.5-32.7Q49.55-35.05 56.65-36L56.65-36Q57.25-37 58.45-38.35 59.65-39.7 60.45-39.95 61.25-40.2 61.75-40.2L61.75-40.2Q63.5-40.2 63.5-38.7L63.5-38.7Q63.45-37.35 62.4-36.63 61.35-35.9 59.45-35.3ZM61-38.6L61-38.6Q60.9-38.6 60.78-38.55 60.65-38.5 60.43-38.33 60.2-38.15 60-38 59.8-37.85 59.53-37.55 59.25-37.25 59.08-37.08 58.9-36.9 58.6-36.58 58.3-36.25 58.2-36.15L58.2-36.15Q61.65-36.75 61.6-38L61.6-38Q61.5-38.6 61-38.6ZM56.7 0.1Q56 0.7 55.15 0.7 54.3 0.7 53.85 0.18 53.4-0.35 53.4-0.75L53.4-0.75Q53.4-2.1 54.2-2.75 55-3.4 55.85-3.4 56.7-3.4 57.15-2.88 57.6-2.35 57.6-1.95 57.6-1.55 57.5-1.03 57.4-0.5 56.7 0.1ZM72.1-2.9L72.1-2.9Q72.1-1.3 73.4-1.3L73.4-1.3Q75.75-1.3 79.65-9.15L79.65-9.15Q79.8-9.45 79.92-9.75 80.05-10.05 80.32-10.15 80.6-10.25 80.7-10.03 80.8-9.8 80.6-9.3L80.6-9.3Q76.6 0 72.5 0L72.5 0Q71.15 0 70.35-1.2 69.55-2.4 69.55-3.58 69.55-4.75 69.8-5.75L69.8-5.75Q66.9-0.95 64.8-0.3L64.8-0.3Q64.2-0.05 63.62-0.05 63.05-0.05 62.5-0.2L62.5-0.2Q60.05-0.85 60.05-4.1L60.05-4.1Q60.05-6.3 61.17-8.97 62.3-11.65 64.35-14.1 66.4-16.55 69.3-17.4L69.3-17.4Q70.35-17.75 71.77-17.75 73.2-17.75 74.95-16.85L74.95-16.85Q78.35-23.25 80.75-28.7L80.75-28.7Q81.45-30.35 82.12-30.83 82.8-31.3 83.37-31.3 83.95-31.3 84.07-31.3 84.2-31.3 85.02-31.18 85.85-31.05 86.3-31.1L86.3-31.1Q85.15-30.05 80.2-20.9L80.2-20.9Q73.9-9.2 72.6-5.3L72.6-5.3Q72.1-3.85 72.1-2.9ZM74.55-16.05L74.55-16.05Q73.9-16.7 72.72-16.7 71.55-16.7 69.45-14.95L69.45-14.95Q66.1-12.15 63.9-8.05L63.9-8.05Q62.45-5.35 62.45-3.6L62.45-3.6Q62.45-2.8 62.77-2.15 63.1-1.5 63.8-1.5L63.8-1.5Q65.5-1.5 68-5 70.5-8.5 74.55-16.05ZM82.09-7.7L82.09-7.7Q81.39-6 81.39-3.9L81.39-3.9Q81.39-2.5 82.02-1.68 82.64-0.85 83.79-0.85L83.79-0.85Q88.34-0.85 92.04-9.4L92.04-9.4Q92.39-10.2 92.89-10.1L92.89-10.1Q93.09-10.05 93.09-9.85 93.09-9.65 91.97-7.23 90.84-4.8 89.69-3.3L89.69-3.3Q87.14 0.2 83.39 0.2L83.39 0.2Q81.39 0.2 79.99-1.1 78.59-2.4 78.59-4.65 78.59-6.9 79.67-9.43 80.74-11.95 82.59-14.13 84.44-16.3 86.84-17.3L86.84-17.3Q87.99-17.8 89.04-17.8 90.09-17.8 90.99-17.2L90.99-17.2Q91.84-16.5 91.84-15.65L91.84-15.65Q91.84-12.65 88.24-9.9L88.24-9.9Q87.14-9.05 85.14-8.38 83.14-7.7 82.09-7.7ZM90.49-15.7L90.49-15.7Q90.49-16.7 89.69-16.7L89.69-16.7Q88.29-16.7 85.44-13.25L85.44-13.25Q83.74-11.15 82.44-8.55L82.44-8.55Q83.29-8.55 84.92-9.15 86.54-9.75 87.74-10.75L87.74-10.75Q90.49-13.1 90.49-15.7ZM105.49-17.45L105.49-17.45 105.24-16.55Q102.69-8.6 100.54-4.95L100.54-4.95Q97.39 0.35 93.94 0.35L93.94 0.35Q91.14 0.35 91.14-2.35L91.14-2.35Q91.14-4.4 92.64-8.7L92.64-8.7Q92.14-7.9 91.87-8.18 91.59-8.45 91.74-8.85L91.74-8.85 92.64-10.55Q93.59-12.5 93.59-14.45 93.59-16.4 92.79-16.75L92.79-16.75Q95.79-17.25 96.29-17.23 96.79-17.2 96.92-16.8 97.04-16.4 97.04-15.9L97.04-15.9Q97.04-12.85 95.47-8.7 93.89-4.55 93.89-3.13 93.89-1.7 94.34-1.48 94.79-1.25 95.24-1.25L95.24-1.25Q96.54-1.25 98.19-3.35 99.84-5.45 101.49-9.55L101.49-9.55Q100.79-11.15 100.79-12.38 100.79-13.6 101.09-14.55L101.09-14.55Q101.99-17.4 103.94-18.1L103.94-18.1Q104.34-18.25 104.69-18.25L104.69-18.25Q105.49-18.25 105.49-17.45Z" opacity="1" transform="matrix(1,0,0,1,0,0)" fill="#f8f5ff" class="wordmark-text-0" data-fill-palette-color="primary" id="text-0"></path></svg></g></svg></g></svg></g></svg></g></svg></g><defs></defs></svg><rect width="395.52" height="213.77000919963197" fill="none" stroke="none" visibility="hidden"></rect></g></svg></g></svg>